<?xml version="1.0" encoding="UTF-8"?> <svg xmlns="http://www.w3.org/2000/svg" xmlns:xlink="http://www.w3.org/1999/xlink" version="1.1" id="Calque_1" x="0px" y="0px" viewBox="0 0 418 119" style="enable-background:new 0 0 418 119;" xml:space="preserve"> <style type="text/css"> .st0{fill:#FFFFFF;} .st1{fill:#2C3A56;} .st2{fill:#C60815;} .st3{display:none;} .st4{display:inline;} .st5{fill:#184371;} .st6{fill:#466BA5;} </style> <rect class="st0" width="418" height="119"></rect> <g> <path class="st1" d="M240.87,43.66l-1.97,2.13v5.27h-3.8V32.62h3.8v8.35l1.67-2.29l4.7-6.06h4.67l-6.54,8.19l6.73,10.24h-4.52 L240.87,43.66z"></path> <path class="st1" d="M258.64,44.3h-3.03v6.75h-3.8V32.62h6.85c2.18,0,3.86,0.49,5.04,1.46c1.18,0.97,1.77,2.34,1.77,4.11 c0,1.26-0.27,2.31-0.82,3.15s-1.37,1.51-2.47,2.01l3.99,7.53v0.18h-4.08L258.64,44.3z M255.61,41.23h3.06 c0.95,0,1.69-0.24,2.22-0.73c0.52-0.49,0.78-1.15,0.78-2.01c0-0.87-0.25-1.55-0.74-2.05c-0.49-0.5-1.25-0.75-2.27-0.75h-3.05V41.23 z"></path> <path class="st1" d="M279.71,43.06h-7.29V48h8.56v3.05h-12.35V32.62h12.33v3.08h-8.53v4.39h7.29V43.06z"></path> <path class="st1" d="M287.5,51.05h-3.8V32.62h3.8V51.05z"></path> <path class="st1" d="M304.78,35.7h-5.65v15.35h-3.8V35.7h-5.57v-3.08h15.01V35.7z"></path> <path class="st1" d="M152.87,76.02c-0.14,1.98-0.88,3.54-2.2,4.68c-1.32,1.14-3.06,1.71-5.22,1.71c-2.36,0-4.22-0.79-5.58-2.39 s-2.03-3.77-2.03-6.55v-1.13c0-1.77,0.31-3.33,0.94-4.68c0.62-1.35,1.52-2.39,2.68-3.11s2.51-1.08,4.04-1.08 c2.13,0,3.84,0.57,5.14,1.71c1.3,1.14,2.05,2.74,2.25,4.8h-3.8c-0.09-1.19-0.42-2.05-0.99-2.59c-0.57-0.54-1.44-0.8-2.6-0.8 c-1.27,0-2.21,0.45-2.84,1.36c-0.63,0.91-0.95,2.31-0.97,4.22v1.39c0,1.99,0.3,3.45,0.91,4.37c0.6,0.92,1.55,1.38,2.85,1.38 c1.17,0,2.05-0.27,2.63-0.8c0.58-0.54,0.91-1.37,0.99-2.49H152.87z"></path> <path class="st1" d="M170.76,73.36c0,1.81-0.32,3.4-0.96,4.77c-0.64,1.37-1.56,2.42-2.75,3.17c-1.19,0.74-2.56,1.11-4.11,1.11 c-1.53,0-2.89-0.37-4.09-1.1c-1.2-0.73-2.13-1.78-2.78-3.15c-0.66-1.36-0.99-2.93-1-4.7v-0.91c0-1.81,0.33-3.41,0.98-4.79 c0.65-1.38,1.58-2.44,2.77-3.18c1.19-0.74,2.56-1.11,4.09-1.11c1.54,0,2.9,0.37,4.09,1.11c1.19,0.74,2.12,1.8,2.77,3.18 c0.65,1.38,0.98,2.97,0.98,4.78V73.36z M166.91,72.52c0-1.93-0.35-3.4-1.04-4.4c-0.69-1-1.68-1.51-2.96-1.51 c-1.27,0-2.26,0.5-2.95,1.49c-0.69,0.99-1.04,2.45-1.05,4.36v0.9c0,1.88,0.35,3.34,1.04,4.38c0.69,1.04,1.69,1.56,2.99,1.56 c1.27,0,2.25-0.5,2.94-1.5s1.03-2.46,1.04-4.37V72.52z"></path> <path class="st1" d="M187.73,63.73v12.14c0,2.02-0.63,3.61-1.89,4.79c-1.26,1.17-2.99,1.76-5.17,1.76c-2.15,0-3.86-0.57-5.13-1.71 c-1.27-1.14-1.91-2.7-1.94-4.7V63.73h3.8v12.16c0,1.21,0.29,2.09,0.87,2.64c0.58,0.55,1.38,0.83,2.4,0.83 c2.13,0,3.22-1.12,3.25-3.37V63.73H187.73z"></path> <path class="st1" d="M197.91,77.59l4.18-13.86h4.23l-6.42,18.43h-3.96l-6.39-18.43h4.22L197.91,77.59z"></path> <path class="st1" d="M219.4,74.17h-7.29v4.94h8.56v3.05h-12.35V63.73h12.33v3.08h-8.53v4.39h7.29V74.17z"></path> <path class="st1" d="M229.97,75.41h-3.03v6.75h-3.8V63.73H230c2.18,0,3.86,0.49,5.04,1.46c1.18,0.97,1.77,2.34,1.77,4.11 c0,1.26-0.27,2.31-0.82,3.15s-1.37,1.51-2.47,2.01l3.99,7.53v0.18h-4.08L229.97,75.41z M226.95,72.33h3.06 c0.95,0,1.69-0.24,2.22-0.73c0.52-0.49,0.78-1.15,0.78-2.01c0-0.87-0.25-1.55-0.74-2.05c-0.49-0.5-1.25-0.75-2.27-0.75h-3.05V72.33 z"></path> <path class="st1" d="M253.19,66.8h-5.65v15.35h-3.8V66.8h-5.57v-3.08h15.01V66.8z"></path> <path class="st1" d="M269.57,63.73v12.14c0,2.02-0.63,3.61-1.89,4.79c-1.26,1.17-2.99,1.76-5.17,1.76c-2.15,0-3.86-0.57-5.13-1.71 c-1.27-1.14-1.91-2.7-1.94-4.7V63.73h3.8v12.16c0,1.21,0.29,2.09,0.87,2.64c0.58,0.55,1.38,0.83,2.4,0.83 c2.13,0,3.22-1.12,3.25-3.37V63.73H269.57z"></path> <path class="st1" d="M279.76,75.41h-3.03v6.75h-3.8V63.73h6.85c2.18,0,3.86,0.49,5.04,1.46c1.18,0.97,1.77,2.34,1.77,4.11 c0,1.26-0.27,2.31-0.82,3.15s-1.37,1.51-2.47,2.01l3.99,7.53v0.18h-4.08L279.76,75.41z M276.74,72.33h3.06 c0.95,0,1.69-0.24,2.22-0.73c0.52-0.49,0.78-1.15,0.78-2.01c0-0.87-0.25-1.55-0.74-2.05c-0.49-0.5-1.25-0.75-2.27-0.75h-3.05V72.33 z"></path> <path class="st1" d="M300.83,74.17h-7.29v4.94h8.56v3.05h-12.35V63.73h12.33v3.08h-8.53v4.39h7.29V74.17z"></path> <path class="st1" d="M316.26,63.73l4.73,13.37l4.71-13.37h4.99v18.43h-3.81v-5.04l0.38-8.7l-4.97,13.73h-2.61l-4.96-13.72 l0.38,8.68v5.04h-3.8V63.73H316.26z"></path> <path class="st1" d="M349.4,73.36c0,1.81-0.32,3.4-0.96,4.77c-0.64,1.37-1.56,2.42-2.75,3.17c-1.19,0.74-2.56,1.11-4.11,1.11 c-1.53,0-2.89-0.37-4.09-1.1c-1.2-0.73-2.13-1.78-2.78-3.15c-0.66-1.36-0.99-2.93-1-4.7v-0.91c0-1.81,0.33-3.41,0.98-4.79 c0.65-1.38,1.58-2.44,2.77-3.18c1.19-0.74,2.56-1.11,4.09-1.11c1.54,0,2.9,0.37,4.09,1.11c1.19,0.74,2.12,1.8,2.77,3.18 c0.65,1.38,0.98,2.97,0.98,4.78V73.36z M345.55,72.52c0-1.93-0.35-3.4-1.04-4.4c-0.69-1-1.68-1.51-2.96-1.51 c-1.27,0-2.26,0.5-2.95,1.49c-0.69,0.99-1.04,2.45-1.05,4.36v0.9c0,1.88,0.35,3.34,1.04,4.38c0.69,1.04,1.69,1.56,2.99,1.56 c1.27,0,2.25-0.5,2.94-1.5s1.03-2.46,1.04-4.37V72.52z"></path> <path class="st1" d="M366.37,63.73v12.14c0,2.02-0.63,3.61-1.89,4.79c-1.26,1.17-2.99,1.76-5.17,1.76c-2.15,0-3.86-0.57-5.13-1.71 c-1.27-1.14-1.91-2.7-1.94-4.7V63.73h3.8v12.16c0,1.21,0.29,2.09,0.87,2.64c0.58,0.55,1.38,0.83,2.4,0.83 c2.13,0,3.22-1.12,3.25-3.37V63.73H366.37z"></path> <path class="st1" d="M380.83,74.17h-7.29v4.94h8.56v3.05h-12.35V63.73h12.33v3.08h-8.53v4.39h7.29V74.17z"></path> <path class="st1" d="M399.57,82.16h-3.8l-7.39-12.13v12.13h-3.8V63.73h3.8l7.41,12.15V63.73h3.78V82.16z"></path> </g> <g id="XMLID_00000004504626743065614060000004586674180520034982_"> <polygon id="XMLID_00000023993247080973226260000015902789630260297649_" class="st2" points="106.9,118.06 98.16,106.02 107.31,91.51 415.9,91.51 401.9,118.42 "></polygon> <g id="XMLID_00000023968191059673806230000006455747085446959027_" class="st3"> <rect id="XMLID_00000080917973125489707590000000131160443646631817_" x="0.25" y="100.12" class="st4" width="5.18" height="5.18"></rect> <rect id="XMLID_00000059311359929959183490000008949800879858996397_" x="7.73" y="100.12" class="st4" width="5.18" height="5.18"></rect> <rect id="XMLID_00000024688864953253610000000009438867096059213242_" x="0.25" y="93.18" class="st4" width="5.18" height="5.18"></rect> <rect id="XMLID_00000176040433042668877710000007671260656051734656_" x="7.73" y="93.18" class="st4" width="5.18" height="5.18"></rect> </g> </g> <g> <path class="st0" d="M151.97,100.28c-1.01,0-1.8,0.36-2.37,1.07s-0.86,1.7-0.86,2.95c0,1.31,0.28,2.31,0.83,2.98 c0.55,0.67,1.36,1.01,2.41,1.01c0.45,0,0.89-0.04,1.32-0.14c0.42-0.09,0.87-0.21,1.33-0.35v1.5c-0.84,0.32-1.79,0.48-2.86,0.48 c-1.57,0-2.77-0.47-3.61-1.42c-0.84-0.95-1.26-2.31-1.26-4.08c0-1.11,0.2-2.09,0.61-2.92c0.41-0.83,1-1.47,1.77-1.92 s1.68-0.67,2.72-0.67c1.09,0,2.1,0.23,3.03,0.69l-0.63,1.46c-0.36-0.17-0.74-0.32-1.15-0.45 C152.84,100.35,152.41,100.28,151.97,100.28z"></path> <path class="st0" d="M164.3,105.58c0,1.32-0.34,2.36-1.02,3.1s-1.62,1.11-2.83,1.11c-0.76,0-1.43-0.17-2.01-0.51 s-1.03-0.83-1.34-1.47s-0.47-1.38-0.47-2.23c0-1.31,0.34-2.34,1.01-3.08s1.62-1.11,2.85-1.11c1.17,0,2.1,0.38,2.78,1.13 C163.96,103.28,164.3,104.3,164.3,105.58z M158.4,105.58c0,1.87,0.69,2.8,2.07,2.8c1.37,0,2.05-0.93,2.05-2.8 c0-1.85-0.69-2.78-2.07-2.78c-0.72,0-1.25,0.24-1.57,0.72C158.56,104,158.4,104.69,158.4,105.58z"></path> <path class="st0" d="M172.36,109.64l-0.24-1.06h-0.09c-0.24,0.38-0.58,0.67-1.02,0.89s-0.95,0.32-1.51,0.32 c-0.98,0-1.71-0.24-2.2-0.73s-0.73-1.23-0.73-2.22v-5.3h1.74v5c0,0.62,0.13,1.08,0.38,1.4c0.25,0.31,0.65,0.46,1.19,0.46 c0.72,0,1.25-0.22,1.59-0.65c0.34-0.43,0.51-1.16,0.51-2.17v-4.04h1.73v8.1H172.36z"></path> <path class="st0" d="M178.39,109.64l-3.08-8.1h1.82l1.65,4.71c0.28,0.79,0.45,1.43,0.51,1.92h0.06c0.04-0.35,0.21-0.99,0.51-1.92 l1.65-4.71h1.83l-3.09,8.1H178.39z"></path> <path class="st0" d="M188.49,109.79c-1.26,0-2.24-0.37-2.96-1.1c-0.71-0.73-1.07-1.75-1.07-3.04c0-1.32,0.33-2.36,0.99-3.12 s1.56-1.14,2.72-1.14c1.07,0,1.91,0.33,2.53,0.97c0.62,0.65,0.93,1.54,0.93,2.68v0.93h-5.4c0.02,0.79,0.24,1.39,0.64,1.81 c0.4,0.42,0.96,0.63,1.69,0.63c0.48,0,0.92-0.04,1.34-0.14c0.41-0.09,0.86-0.24,1.33-0.45v1.4c-0.42,0.2-0.84,0.34-1.27,0.42 C189.53,109.75,189.04,109.79,188.49,109.79z M188.17,102.7c-0.55,0-0.99,0.17-1.31,0.52c-0.33,0.35-0.53,0.85-0.59,1.52h3.68 c-0.01-0.67-0.17-1.18-0.48-1.52C189.15,102.87,188.72,102.7,188.17,102.7z"></path> <path class="st0" d="M198.08,101.4c0.35,0,0.63,0.02,0.86,0.07l-0.17,1.6c-0.24-0.06-0.5-0.09-0.76-0.09 c-0.69,0-1.25,0.23-1.67,0.67c-0.43,0.45-0.64,1.03-0.64,1.75v4.23h-1.72v-8.1h1.35l0.23,1.43h0.09c0.27-0.48,0.62-0.87,1.05-1.15 C197.11,101.54,197.58,101.4,198.08,101.4z"></path> <path class="st0" d="M203.83,108.4c0.42,0,0.84-0.07,1.26-0.2v1.3c-0.19,0.08-0.44,0.15-0.74,0.21c-0.3,0.06-0.61,0.08-0.93,0.08 c-1.63,0-2.45-0.86-2.45-2.58v-4.37h-1.11v-0.76l1.19-0.63l0.59-1.71h1.06v1.8h2.31v1.3h-2.31v4.34c0,0.42,0.1,0.72,0.31,0.92 C203.22,108.3,203.49,108.4,203.83,108.4z"></path> <path class="st0" d="M212.79,109.64l-0.24-1.06h-0.09c-0.24,0.38-0.58,0.67-1.02,0.89s-0.95,0.32-1.51,0.32 c-0.98,0-1.71-0.24-2.2-0.73s-0.73-1.23-0.73-2.22v-5.3h1.74v5c0,0.62,0.13,1.08,0.38,1.4c0.25,0.31,0.65,0.46,1.19,0.46 c0.72,0,1.25-0.22,1.59-0.65c0.34-0.43,0.51-1.16,0.51-2.17v-4.04h1.73v8.1H212.79z"></path> <path class="st0" d="M221.08,101.4c0.35,0,0.63,0.02,0.86,0.07l-0.17,1.6c-0.24-0.06-0.5-0.09-0.76-0.09 c-0.69,0-1.25,0.23-1.67,0.67c-0.43,0.45-0.64,1.03-0.64,1.75v4.23h-1.72v-8.1h1.35l0.23,1.43h0.09c0.27-0.48,0.62-0.87,1.05-1.15 C220.12,101.54,220.59,101.4,221.08,101.4z"></path> <path class="st0" d="M227.36,109.79c-1.26,0-2.24-0.37-2.96-1.1c-0.71-0.73-1.07-1.75-1.07-3.04c0-1.32,0.33-2.36,0.99-3.12 s1.56-1.14,2.72-1.14c1.07,0,1.91,0.33,2.53,0.97c0.62,0.65,0.93,1.54,0.93,2.68v0.93h-5.4c0.02,0.79,0.24,1.39,0.64,1.81 c0.4,0.42,0.96,0.63,1.69,0.63c0.48,0,0.92-0.04,1.34-0.14c0.41-0.09,0.86-0.24,1.33-0.45v1.4c-0.42,0.2-0.84,0.34-1.27,0.42 C228.4,109.75,227.91,109.79,227.36,109.79z M227.04,102.7c-0.55,0-0.99,0.17-1.31,0.52c-0.33,0.35-0.53,0.85-0.59,1.52h3.68 c-0.01-0.67-0.17-1.18-0.48-1.52C228.02,102.87,227.59,102.7,227.04,102.7z"></path> <path class="st0" d="M234.62,108.07c-0.23,0.91-0.66,2.08-1.29,3.51h-1.27c0.34-1.32,0.59-2.54,0.75-3.68h1.69L234.62,108.07z"></path> <path class="st0" d="M245.55,102.85h-1.98v6.8h-1.73v-6.8h-1.33v-0.81l1.33-0.53v-0.53c0-0.96,0.22-1.67,0.67-2.13 c0.45-0.46,1.14-0.69,2.06-0.69c0.61,0,1.2,0.1,1.79,0.3l-0.45,1.3c-0.42-0.14-0.83-0.21-1.22-0.21c-0.39,0-0.68,0.12-0.85,0.36 c-0.18,0.24-0.27,0.6-0.27,1.09v0.53h1.98V102.85z"></path> <path class="st0" d="M252.37,109.64l-0.34-1.13h-0.06c-0.39,0.49-0.78,0.83-1.18,1.01c-0.4,0.18-0.9,0.27-1.52,0.27 c-0.8,0-1.42-0.21-1.86-0.64c-0.45-0.43-0.67-1.04-0.67-1.82c0-0.83,0.31-1.46,0.93-1.89c0.62-0.43,1.56-0.66,2.83-0.7l1.4-0.04 v-0.43c0-0.52-0.12-0.91-0.36-1.16c-0.24-0.26-0.62-0.38-1.12-0.38c-0.42,0-0.81,0.06-1.19,0.18c-0.38,0.12-0.75,0.27-1.1,0.43 l-0.56-1.23c0.44-0.23,0.92-0.4,1.44-0.52c0.52-0.12,1.02-0.18,1.48-0.18c1.03,0,1.81,0.22,2.33,0.67 c0.52,0.45,0.79,1.16,0.79,2.12v5.46H252.37z M249.81,108.47c0.62,0,1.13-0.17,1.5-0.52c0.38-0.35,0.57-0.84,0.57-1.47v-0.7 l-1.04,0.04c-0.81,0.03-1.4,0.17-1.77,0.41c-0.37,0.24-0.55,0.61-0.55,1.11c0,0.36,0.11,0.64,0.32,0.84 C249.06,108.37,249.38,108.47,249.81,108.47z"></path> <path class="st0" d="M259.65,109.79c-1.23,0-2.16-0.36-2.79-1.07c-0.64-0.71-0.96-1.74-0.96-3.08c0-1.36,0.33-2.41,1-3.14 c0.67-0.73,1.63-1.1,2.89-1.1c0.85,0,1.62,0.16,2.31,0.48l-0.52,1.38c-0.73-0.28-1.33-0.42-1.8-0.42c-1.4,0-2.1,0.93-2.1,2.79 c0,0.91,0.17,1.59,0.52,2.05c0.35,0.46,0.86,0.68,1.53,0.68c0.77,0,1.49-0.19,2.18-0.57v1.5c-0.31,0.18-0.64,0.31-0.99,0.39 S260.15,109.79,259.65,109.79z M260.88,111.62c0,1.08-0.74,1.63-2.23,1.63c-0.32,0-0.62-0.04-0.89-0.11v-1 c0.26,0.07,0.56,0.1,0.9,0.1c0.26,0,0.47-0.04,0.63-0.12c0.15-0.08,0.23-0.23,0.23-0.45c0-0.42-0.44-0.68-1.31-0.81l0.62-1.22h1.11 l-0.3,0.64c0.39,0.1,0.7,0.27,0.92,0.5C260.77,111.02,260.88,111.3,260.88,111.62z"></path> <path class="st0" d="M269.25,109.64l-0.34-1.13h-0.06c-0.39,0.49-0.78,0.83-1.18,1.01c-0.4,0.18-0.9,0.27-1.52,0.27 c-0.8,0-1.42-0.21-1.86-0.64c-0.45-0.43-0.67-1.04-0.67-1.82c0-0.83,0.31-1.46,0.93-1.89c0.62-0.43,1.56-0.66,2.83-0.7l1.4-0.04 v-0.43c0-0.52-0.12-0.91-0.36-1.16c-0.24-0.26-0.62-0.38-1.12-0.38c-0.42,0-0.81,0.06-1.19,0.18c-0.38,0.12-0.75,0.27-1.1,0.43 l-0.56-1.23c0.44-0.23,0.92-0.4,1.44-0.52c0.52-0.12,1.02-0.18,1.48-0.18c1.03,0,1.81,0.22,2.33,0.67 c0.52,0.45,0.79,1.16,0.79,2.12v5.46H269.25z M266.69,108.47c0.62,0,1.13-0.17,1.5-0.52c0.38-0.35,0.57-0.84,0.57-1.47v-0.7 l-1.04,0.04c-0.81,0.03-1.4,0.17-1.77,0.41c-0.37,0.24-0.55,0.61-0.55,1.11c0,0.36,0.11,0.64,0.32,0.84 C265.94,108.37,266.26,108.47,266.69,108.47z"></path> <path class="st0" d="M275.99,109.79c-1.01,0-1.8-0.37-2.37-1.1s-0.85-1.76-0.85-3.08c0-1.33,0.29-2.36,0.86-3.1 c0.57-0.74,1.37-1.11,2.38-1.11c1.06,0,1.88,0.39,2.43,1.18h0.09c-0.08-0.58-0.12-1.04-0.12-1.38v-2.95h1.73v11.4h-1.35l-0.3-1.06 h-0.08C277.86,109.39,277.06,109.79,275.99,109.79z M276.45,108.4c0.71,0,1.22-0.2,1.55-0.6c0.32-0.4,0.49-1.04,0.5-1.94v-0.24 c0-1.02-0.17-1.75-0.5-2.17s-0.85-0.64-1.56-0.64c-0.61,0-1.07,0.25-1.4,0.74c-0.33,0.49-0.49,1.19-0.49,2.1 c0,0.9,0.16,1.58,0.48,2.05C275.34,108.16,275.82,108.4,276.45,108.4z"></path> <path class="st0" d="M286.52,109.79c-1.26,0-2.24-0.37-2.96-1.1c-0.71-0.73-1.07-1.75-1.07-3.04c0-1.32,0.33-2.36,0.99-3.12 s1.56-1.14,2.72-1.14c1.07,0,1.91,0.33,2.53,0.97c0.62,0.65,0.93,1.54,0.93,2.68v0.93h-5.4c0.02,0.79,0.24,1.39,0.64,1.81 c0.4,0.42,0.96,0.63,1.69,0.63c0.48,0,0.92-0.04,1.34-0.14c0.41-0.09,0.86-0.24,1.33-0.45v1.4c-0.42,0.2-0.84,0.34-1.27,0.42 C287.56,109.75,287.07,109.79,286.52,109.79z M286.2,102.7c-0.55,0-0.99,0.17-1.31,0.52c-0.33,0.35-0.53,0.85-0.59,1.52h3.68 c-0.01-0.67-0.17-1.18-0.48-1.52C287.18,102.87,286.75,102.7,286.2,102.7z"></path> <path class="st0" d="M299.81,109.79c-1.26,0-2.24-0.37-2.96-1.1c-0.71-0.73-1.07-1.75-1.07-3.04c0-1.32,0.33-2.36,0.99-3.12 s1.56-1.14,2.72-1.14c1.07,0,1.91,0.33,2.53,0.97c0.62,0.65,0.93,1.54,0.93,2.68v0.93h-5.4c0.02,0.79,0.24,1.39,0.64,1.81 c0.4,0.42,0.96,0.63,1.69,0.63c0.48,0,0.92-0.04,1.34-0.14c0.41-0.09,0.86-0.24,1.33-0.45v1.4c-0.42,0.2-0.84,0.34-1.27,0.42 C300.85,109.75,300.36,109.79,299.81,109.79z M299.49,102.7c-0.55,0-0.99,0.17-1.31,0.52c-0.33,0.35-0.53,0.85-0.59,1.52h3.68 c-0.01-0.67-0.17-1.18-0.48-1.52C300.47,102.87,300.04,102.7,299.49,102.7z"></path> <path class="st0" d="M308.3,108.4c0.42,0,0.84-0.07,1.26-0.2v1.3c-0.19,0.08-0.44,0.15-0.74,0.21c-0.3,0.06-0.61,0.08-0.93,0.08 c-1.63,0-2.45-0.86-2.45-2.58v-4.37h-1.11v-0.76l1.19-0.63l0.59-1.71h1.06v1.8h2.31v1.3h-2.31v4.34c0,0.42,0.1,0.72,0.31,0.92 C307.7,108.3,307.97,108.4,308.3,108.4z"></path> <path class="st0" d="M319.37,109.79c-1.26,0-2.24-0.37-2.96-1.1c-0.71-0.73-1.07-1.75-1.07-3.04c0-1.32,0.33-2.36,0.99-3.12 s1.56-1.14,2.72-1.14c1.07,0,1.91,0.33,2.53,0.97c0.62,0.65,0.93,1.54,0.93,2.68v0.93h-5.4c0.02,0.79,0.24,1.39,0.64,1.81 c0.4,0.42,0.96,0.63,1.69,0.63c0.48,0,0.92-0.04,1.34-0.14c0.41-0.09,0.86-0.24,1.33-0.45v1.4c-0.42,0.2-0.84,0.34-1.27,0.42 C320.41,109.75,319.92,109.79,319.37,109.79z M319.05,102.7c-0.55,0-0.99,0.17-1.31,0.52c-0.33,0.35-0.53,0.85-0.59,1.52h3.68 c-0.01-0.67-0.17-1.18-0.48-1.52C320.03,102.87,319.6,102.7,319.05,102.7z"></path> <path class="st0" d="M326.65,105.51l-2.72-3.96h1.96l1.85,2.83l1.86-2.83h1.95l-2.72,3.96l2.86,4.14h-1.95l-2-3.03l-1.99,3.03 h-1.95L326.65,105.51z"></path> <path class="st0" d="M336.5,108.4c0.42,0,0.84-0.07,1.26-0.2v1.3c-0.19,0.08-0.44,0.15-0.74,0.21c-0.3,0.06-0.61,0.08-0.93,0.08 c-1.63,0-2.45-0.86-2.45-2.58v-4.37h-1.11v-0.76l1.19-0.63l0.59-1.71h1.06v1.8h2.31v1.3h-2.31v4.34c0,0.42,0.1,0.72,0.31,0.92 C335.89,108.3,336.16,108.4,336.5,108.4z"></path> <path class="st0" d="M343.29,109.79c-1.26,0-2.24-0.37-2.96-1.1c-0.71-0.73-1.07-1.75-1.07-3.04c0-1.32,0.33-2.36,0.99-3.12 s1.56-1.14,2.72-1.14c1.07,0,1.91,0.33,2.53,0.97c0.62,0.65,0.93,1.54,0.93,2.68v0.93h-5.4c0.02,0.79,0.24,1.39,0.64,1.81 c0.4,0.42,0.96,0.63,1.69,0.63c0.48,0,0.92-0.04,1.34-0.14c0.41-0.09,0.86-0.24,1.33-0.45v1.4c-0.42,0.2-0.84,0.34-1.27,0.42 C344.33,109.75,343.84,109.79,343.29,109.79z M342.98,102.7c-0.55,0-0.99,0.17-1.31,0.52c-0.33,0.35-0.53,0.85-0.59,1.52h3.68 c-0.01-0.67-0.17-1.18-0.48-1.52C343.95,102.87,343.52,102.7,342.98,102.7z M341.88,100.55v-0.18c0.28-0.34,0.56-0.72,0.86-1.14 s0.53-0.78,0.7-1.08h2v0.15c-0.25,0.3-0.63,0.68-1.14,1.15c-0.51,0.47-0.93,0.84-1.28,1.09H341.88z"></path> <path class="st0" d="M352.88,101.4c0.35,0,0.63,0.02,0.86,0.07l-0.17,1.6c-0.24-0.06-0.5-0.09-0.76-0.09 c-0.69,0-1.25,0.23-1.67,0.67c-0.43,0.45-0.64,1.03-0.64,1.75v4.23h-1.72v-8.1h1.35l0.23,1.43h0.09c0.27-0.48,0.62-0.87,1.05-1.15 C351.92,101.54,352.38,101.4,352.88,101.4z"></path> <path class="st0" d="M355.51,99.4c0-0.31,0.08-0.54,0.25-0.71c0.17-0.17,0.41-0.25,0.72-0.25c0.3,0,0.54,0.08,0.71,0.25 c0.17,0.17,0.25,0.4,0.25,0.71c0,0.29-0.08,0.52-0.25,0.69c-0.17,0.17-0.4,0.25-0.71,0.25c-0.31,0-0.55-0.08-0.72-0.25 C355.6,99.92,355.51,99.69,355.51,99.4z M357.34,109.64h-1.72v-8.1h1.72V109.64z"></path> <path class="st0" d="M363.71,109.79c-1.26,0-2.24-0.37-2.96-1.1c-0.71-0.73-1.07-1.75-1.07-3.04c0-1.32,0.33-2.36,0.99-3.12 s1.56-1.14,2.72-1.14c1.07,0,1.91,0.33,2.53,0.97c0.62,0.65,0.93,1.54,0.93,2.68v0.93h-5.4c0.02,0.79,0.24,1.39,0.64,1.81 c0.4,0.42,0.96,0.63,1.69,0.63c0.48,0,0.92-0.04,1.34-0.14c0.41-0.09,0.86-0.24,1.33-0.45v1.4c-0.42,0.2-0.84,0.34-1.27,0.42 C364.75,109.75,364.26,109.79,363.71,109.79z M363.39,102.7c-0.55,0-0.99,0.17-1.31,0.52c-0.33,0.35-0.53,0.85-0.59,1.52h3.68 c-0.01-0.67-0.17-1.18-0.48-1.52C364.37,102.87,363.94,102.7,363.39,102.7z"></path> <path class="st0" d="M374.9,109.64l-0.24-1.06h-0.09c-0.24,0.38-0.58,0.67-1.02,0.89s-0.95,0.32-1.51,0.32 c-0.98,0-1.71-0.24-2.2-0.73s-0.73-1.23-0.73-2.22v-5.3h1.74v5c0,0.62,0.13,1.08,0.38,1.4c0.25,0.31,0.65,0.46,1.19,0.46 c0.72,0,1.25-0.22,1.59-0.65c0.34-0.43,0.51-1.16,0.51-2.17v-4.04h1.73v8.1H374.9z"></path> <path class="st0" d="M383.19,101.4c0.35,0,0.63,0.02,0.86,0.07l-0.17,1.6c-0.24-0.06-0.5-0.09-0.76-0.09 c-0.69,0-1.25,0.23-1.67,0.67c-0.43,0.45-0.64,1.03-0.64,1.75v4.23h-1.72v-8.1h1.35l0.23,1.43h0.09c0.27-0.48,0.62-0.87,1.05-1.15 C382.23,101.54,382.7,101.4,383.19,101.4z"></path> <path class="st0" d="M391.37,107.34c0,0.79-0.29,1.4-0.86,1.82c-0.58,0.42-1.4,0.63-2.48,0.63c-1.08,0-1.95-0.16-2.6-0.49v-1.49 c0.95,0.44,1.84,0.66,2.66,0.66c1.06,0,1.59-0.32,1.59-0.96c0-0.21-0.06-0.38-0.18-0.51c-0.12-0.14-0.31-0.28-0.58-0.42 s-0.64-0.31-1.12-0.5c-0.93-0.36-1.56-0.72-1.89-1.08c-0.33-0.36-0.49-0.83-0.49-1.41c0-0.69,0.28-1.23,0.84-1.62 c0.56-0.38,1.32-0.58,2.28-0.58c0.95,0,1.85,0.19,2.7,0.58l-0.56,1.3c-0.87-0.36-1.61-0.54-2.2-0.54c-0.91,0-1.36,0.26-1.36,0.78 c0,0.25,0.12,0.47,0.36,0.64c0.24,0.18,0.75,0.42,1.55,0.73c0.67,0.26,1.15,0.5,1.46,0.71s0.53,0.46,0.67,0.74 C391.3,106.61,391.37,106.95,391.37,107.34z"></path> </g> <g> <polygon class="st5" points="68.33,51.45 27.58,36.54 84.52,114.92 165.37,0.28 "></polygon> <polygon points="162.64,11.41 158.6,17.14 187.51,50.72 197,50.88 "></polygon> <polygon points="33.1,50.05 29.02,45.48 5.7,75.98 14.18,75.24 "></polygon> <g> <rect x="157.76" y="33.78" transform="matrix(-1 -4.567647e-11 4.567647e-11 -1 320.494 72.5329)" width="4.98" height="4.98"></rect> <rect x="151.06" y="33.78" transform="matrix(-1 -4.531099e-11 4.531099e-11 -1 307.0989 72.5329)" width="4.98" height="4.98"></rect> <rect x="157.76" y="40.38" transform="matrix(-1 -4.567647e-11 4.567647e-11 -1 320.494 85.7471)" width="4.98" height="4.98"></rect> <rect x="151.06" y="40.38" transform="matrix(-1 -4.494550e-11 4.494550e-11 -1 307.0989 85.7471)" width="4.98" height="4.98"></rect> </g> <g> <rect x="34.98" y="71.26" transform="matrix(-1 -4.174229e-11 4.174229e-11 -1 74.0033 146.577)" width="4.05" height="4.05"></rect> <rect x="29.52" y="71.26" transform="matrix(-1 -4.398671e-11 4.398671e-11 -1 63.0981 146.577)" width="4.05" height="4.05"></rect> <rect x="34.98" y="76.64" transform="matrix(-1 -4.443524e-11 4.443524e-11 -1 74.0033 157.3349)" width="4.05" height="4.05"></rect> <rect x="29.52" y="76.64" transform="matrix(-1 -4.533319e-11 4.533319e-11 -1 63.0981 157.3349)" width="4.05" height="4.05"></rect> </g> </g> <polygon class="st6" points="27.58,36.54 68.33,51.45 84.52,114.92 "></polygon> </svg> 